:SAMPLES-PER-SECOND 30
:FULLY-SPECIFIED
:DEGREES
78
root  -51.0004 36.1836 -29.7357 9.01385 -24.9301 -1.68822
RightUpLeg  -45.2499 -17.3804 -6.71185
RightLeg  34.2273 1.67836 0.974536
RightFoot  4.97626 -1.13446 8.16666
RightToes  0.00048216 0.542163 -0.142577
Spine  56.5041 -6.33799 12.1789
Spine1  11.5754 1.41093 -3.56522
HEad  -32.9038 -10.3308 1.82155
LeftShoulder1  9.7828 -24.043 -29.3074
LeftArm  -21.1024 -51.5369 -26.4366
LeftForeArm  24.8834 -6.57779 -5.1272
LeftHand  -0.25398 0.0180481 5.50724
RightShoulder  3.6571 11.3707 18.0411
RightArm  -32.779 57.1659 12.6287
RightForeArm  8.95286 -3.60498 3.97216
RightHand  -0.449489 -0.263094 -10.1915
LeftUpLeg  -49.878 10.4442 -2.81892
LeftLeg  66.3267 5.0809 13.3541
LeftFoot  -11.0904 0.0479677 3.99631
LeftToes  1.06244e-005 4.65854e-005 -8.18505e-006
79
root  -52.2339 36.3896 -30.2365 13.0211 -22.6205 -0.952332
RightUpLeg  -49.7143 -18.3244 -4.14199
RightLeg  34.8379 0.484911 0.104861
RightFoot  4.3814 -1.05927 7.8828
RightToes  0.00048216 0.542163 -0.142577
Spine  58.6365 -6.52791 11.7415
Spine1  11.4117 1.58283 -3.93641
HEad  -37.4209 -9.52542 2.05913
LeftShoulder1  9.32377 -25.7417 -25.5325
LeftArm  -24.9488 -55.992 -23.2529
LeftForeArm  22.7569 -4.08814 -4.40471
LeftHand  -0.25398 0.0180481 5.50724
RightShoulder  3.3044 11.6177 15.0493
RightArm  -40.7675 60.8958 4.42684
RightForeArm  9.73113 -4.61185 3.21676
RightHand  -0.415347 -0.243816 -9.3565
LeftUpLeg  -55.1941 15.2058 -10.3783
LeftLeg  60.1467 4.77259 9.49479
LeftFoot  -11.97 0.0740836 -1.59249
LeftToes  1.06244e-005 4.65854e-005 -8.18505e-006
80
root  -53.3539 36.4756 -30.5842 17.1246 -20.1404 -0.437317
RightUpLeg  -54.5437 -19.4237 -1.31869
RightLeg  35.9766 -0.7863 -0.875996
RightFoot  3.18357 -0.901483 7.21809
RightToes  0.00048216 0.542163 -0.142577
Spine  60.3864 -7.11416 11.9171
Spine1  10.9693 1.58516 -4.22975
HEad  -40.9155 -8.71117 1.92035
LeftShoulder1  8.87577 -27.278 -22.2841
LeftArm  -30.0564 -59.4416 -18.6415
LeftForeArm  20.9315 -2.40785 -3.58917
LeftHand  -0.25398 0.0180481 5.50724
RightShoulder  2.7266 11.485 11.022
RightArm  -47.0819 62.5223 -1.70525
RightForeArm  8.27806 -3.44667 2.89847
RightHand  -0.466776 0.417333 -9.40264
LeftUpLeg  -59.2046 17.9415 -18.5383
LeftLeg  52.7617 5.98682 8.79894
LeftFoot  -10.2926 0.0602442 -0.968551
LeftToes  1.06244e-005 4.65854e-005 -8.18505e-006
81
root  -54.3559 36.4132 -30.8335 20.6874 -18.2319 -0.876114
RightUpLeg  -58.8969 -19.8057 2.34772
RightLeg  37.6239 -1.67279 -1.65236
RightFoot  1.52957 -0.589176 5.31083
RightToes  0.00048216 0.542163 -0.142577
Spine  62.5675 -7.48153 12.3234
Spine1  9.8973 1.9994 -4.4461
HEad  -43.2202 -8.00895 1.83116
LeftShoulder1  9.01957 -28.0478 -22.0091
LeftArm  -35.6579 -62.7958 -12.1102
LeftForeArm  18.9813 -0.911685 -3.25708
LeftHand  -0.25398 0.0180481 5.50724
RightShoulder  2.24209 11.5406 7.35621
RightArm  -51.1271 62.8702 -6.90613
RightForeArm  7.37919 -1.84151 3.0838
RightHand  -0.490772 1.30376 -8.66741
LeftUpLeg  -61.5822 19.8613 -24.533
LeftLeg  46.5396 8.62051 10.0395
LeftFoot  -10.5557 0.0422193 6.40464
LeftToes  1.06244e-005 4.65854e-005 -8.18505e-006
82
root  -55.2922 36.2188 -31.0197 23.7122 -16.6879 -2.12885
RightUpLeg  -62.618 -19.4079 6.35883
RightLeg  39.6176 -2.17765 -2.21217
RightFoot  0.306096 -0.347068 3.43326
RightToes  0.00048216 0.542163 -0.142577
Spine  65.1121 -7.64322 12.8441
Spine1  8.27845 2.85133 -5.17059
HEad  -44.8677 -7.45609 2.35891
LeftShoulder1  9.33826 -28.4501 -22.6757
LeftArm  -42.0343 -65.9114 -4.62888
LeftForeArm  16.1047 0.618267 -3.14023
LeftHand  -0.25398 0.0180481 5.50724
RightShoulder  2.00508 11.9011 5.22953
RightArm  -54.6111 62.6458 -12.7301
RightForeArm  7.47525 -0.863238 3.40118
RightHand  -0.413438 1.88455 -6.78949
LeftUpLeg  -63.7338 20.396 -26.1217
LeftLeg  43.9945 10.6742 11.2617
LeftFoot  -13.3277 0.285194 12.3819
LeftToes  1.06244e-005 4.65854e-005 -8.18505e-006
